M48
;GenerationSoftware,Autodesk,EAGLE,9.6.0*%
;CreationDate,2020-05-08T23:03:18Z*%
FMAT,2
ICI,OFF
METRIC,TZ,000.000
T1C0.200
%
G90
M71
T1
X21000Y14000
X16435Y14843
X12500Y13743
X14900Y13700
X10329Y13200
X14454Y10292
X1900Y3854
X2413Y7620
X20320Y3148
X21082Y9144
X17799Y6858
X14500Y11000
X14000Y13300
X9525Y13716
X6985Y17145
X1524Y2540
X7000Y8200
X9271Y2813
X10795Y2813
X11557Y3013
X18820Y3148
X20000Y20000
X13000Y15900
X18800Y16500
X17000Y17400
X9560Y4350
X10910Y6600
X10975Y13366
X12500Y13021
X21000Y10000
X11500Y12000
X17780Y6350
X9660Y6600
X9493Y12000
X15200Y3078
X15008Y10292
X7308Y10107
X8500Y18481
X8471Y17000
X15571Y3400
X15640Y9379
X16621Y3378
X16405Y5300
X16022Y15829
X17220Y5420
X8500Y7500
X8667Y5426
X17871Y4807
X7358Y4258
X7300Y17700
X8000Y4900
X8000Y15900
X8455Y8878
X17100Y8300
X14871Y6900
X8711Y9618
X13543Y6017
X5200Y5362
X8032Y10293
X7671Y2850
X7400Y11750
X11993Y2807
X9825Y10671
X10894Y3267
X10010Y5450
X18000Y2900
X17300Y15500
X12000Y15400
X15500Y14400
X12500Y14400
X15921Y2892
X7858Y15100
X12365Y3085
X11522Y16600
X13726Y5359
X13500Y14900
X12408Y6892
X7060Y6802
X8691Y10325
X8034Y9754
X4100Y3432
X18729Y4075
X4829Y3635
X18921Y4700
X15064Y17080
X16782Y2900
X10410Y6600
X17930Y5727
X18800Y13400
X15614Y17409
X2600Y3854
X20268Y4000
X2600Y3400
X17329Y3629
X10400Y15000
X18630Y12500
X11000Y15100
X18800Y15300
X11010Y5450
X19223Y6712
X19558Y7112
X8929Y4237
X14000Y17571
X9218Y17682
X5834Y4334
X10171Y18400
X11000Y18400
X16200Y12035
X15094Y5650
X16200Y12500
X17110Y6625
X8329Y4450
X8463Y6387
X16354Y13488
X15100Y17571
X7929Y17700
X7552Y10955
X16500Y9000
X13464Y9005
X13500Y7650
X9500Y17000
X19800Y5200
X19422Y16900
X13400Y6878
X13400Y10771
X8900Y4769
X8700Y13078
X16103Y13000
X19829Y3417
X1921Y2789
X43507Y14000
X38942Y14843
X35007Y13743
X37407Y13700
X32836Y13200
X36961Y10292
X24407Y3854
X24920Y7620
X42827Y3148
X43589Y9144
X40306Y6858
X37007Y11000
X36507Y13300
X32032Y13716
X29492Y17145
X24031Y2540
X29507Y8200
X31778Y2813
X33302Y2813
X34064Y3013
X41327Y3148
X42507Y20000
X35507Y15900
X41307Y16500
X39507Y17400
X32067Y4350
X33417Y6600
X33482Y13366
X35007Y13021
X43507Y10000
X34007Y12000
X40287Y6350
X32167Y6600
X32000Y12000
X37707Y3078
X37515Y10292
X29815Y10107
X31007Y18481
X30978Y17000
X38078Y3400
X38147Y9379
X39128Y3378
X38912Y5300
X38529Y15829
X39727Y5420
X31007Y7500
X31174Y5426
X40378Y4807
X29865Y4258
X29807Y17700
X30507Y4900
X30507Y15900
X30962Y8878
X39607Y8300
X37378Y6900
X31218Y9618
X36050Y6017
X27707Y5362
X30539Y10293
X30178Y2850
X29907Y11750
X34500Y2807
X32332Y10671
X33401Y3267
X32517Y5450
X40507Y2900
X39807Y15500
X34507Y15400
X38007Y14400
X35007Y14400
X38428Y2892
X30365Y15100
X34872Y3085
X34029Y16600
X36233Y5359
X36007Y14900
X34915Y6892
X29566Y6802
X31198Y10325
X30541Y9754
X26607Y3432
X41236Y4075
X27336Y3635
X41428Y4700
X37571Y17080
X39289Y2900
X32917Y6600
X40437Y5727
X41307Y13400
X38121Y17409
X25107Y3854
X42775Y4000
X25107Y3400
X39836Y3629
X32907Y15000
X41137Y12500
X33507Y15100
X41307Y15300
X33517Y5450
X41730Y6712
X42065Y7112
X31436Y4237
X36507Y17571
X31725Y17682
X28341Y4334
X32678Y18400
X33507Y18400
X38707Y12035
X37601Y5650
X38707Y12500
X39617Y6625
X30836Y4450
X30970Y6387
X38861Y13488
X37607Y17571
X30436Y17700
X30059Y10955
X39007Y9000
X35971Y9005
X36007Y7650
X32007Y17000
X42307Y5200
X41929Y16900
X35907Y6878
X35907Y10771
X31407Y4769
X31207Y13078
X38610Y13000
X42336Y3417
X24428Y2789
X66016Y14000
X61452Y14843
X57516Y13743
X59916Y13700
X55345Y13200
X59470Y10292
X46916Y3854
X47429Y7620
X65336Y3148
X66098Y9144
X62815Y6858
X59516Y11000
X59016Y13300
X54541Y13716
X52001Y17145
X46540Y2540
X52016Y8200
X54287Y2813
X55811Y2813
X56573Y3013
X63836Y3148
X65016Y20000
X58016Y15900
X63816Y16500
X62016Y17400
X54576Y4350
X55926Y6600
X55991Y13366
X57516Y13021
X66016Y10000
X56516Y12000
X62796Y6350
X54676Y6600
X54509Y12000
X60216Y3078
X60024Y10292
X52324Y10107
X53516Y18481
X53488Y17000
X60588Y3400
X60656Y9379
X61638Y3378
X61422Y5300
X61039Y15829
X62236Y5420
X53516Y7500
X53683Y5426
X62888Y4807
X52374Y4258
X52317Y17700
X53016Y4900
X53016Y15900
X53471Y8878
X62116Y8300
X59888Y6900
X53728Y9618
X58559Y6017
X50216Y5362
X53048Y10293
X52688Y2850
X52416Y11750
X57009Y2807
X54842Y10671
X55910Y3267
X55026Y5450
X63016Y2900
X62316Y15500
X57016Y15400
X60516Y14400
X57516Y14400
X60938Y2892
X52874Y15100
X57381Y3085
X56539Y16600
X58743Y5359
X58516Y14900
X57424Y6892
X52076Y6802
X53708Y10325
X53050Y9754
X49116Y3432
X63745Y4075
X49845Y3635
X63938Y4700
X60080Y17080
X61798Y2900
X55426Y6600
X62947Y5727
X63816Y13400
X60630Y17409
X47616Y3854
X65284Y4000
X47616Y3400
X62345Y3629
X55416Y15000
X63647Y12500
X56016Y15100
X63816Y15300
X56026Y5450
X64239Y6712
X64574Y7112
X53945Y4237
X59016Y17571
X54234Y17682
X50850Y4334
X55188Y18400
X56016Y18400
X61216Y12035
X60110Y5650
X61216Y12500
X62127Y6625
X53345Y4450
X53480Y6387
X61370Y13488
X60116Y17571
X52945Y17700
X52568Y10955
X61516Y9000
X58480Y9005
X58516Y7650
X54516Y17000
X64816Y5200
X64439Y16900
X58416Y6878
X58416Y10771
X53916Y4769
X53716Y13078
X61120Y13000
X64845Y3417
X46938Y2789
X88523Y14000
X83959Y14843
X80023Y13743
X82423Y13700
X77852Y13200
X81977Y10292
X69423Y3854
X69936Y7620
X87843Y3148
X88605Y9144
X85322Y6858
X82023Y11000
X81523Y13300
X77048Y13716
X74508Y17145
X69047Y2540
X74523Y8200
X76794Y2813
X78318Y2813
X79080Y3013
X86343Y3148
X87523Y20000
X80523Y15900
X86323Y16500
X84523Y17400
X77083Y4350
X78433Y6600
X78498Y13366
X80023Y13021
X88523Y10000
X79023Y12000
X85303Y6350
X77183Y6600
X77016Y12000
X82723Y3078
X82531Y10292
X74831Y10107
X76023Y18481
X75995Y17000
X83095Y3400
X83163Y9379
X84145Y3378
X83929Y5300
X83546Y15829
X84743Y5420
X76023Y7500
X76190Y5426
X85395Y4807
X74881Y4258
X74824Y17700
X75523Y4900
X75523Y15900
X75978Y8878
X84623Y8300
X82395Y6900
X76235Y9618
X81066Y6017
X72723Y5362
X75555Y10293
X75195Y2850
X74923Y11750
X79516Y2807
X77349Y10671
X78417Y3267
X77533Y5450
X85523Y2900
X84823Y15500
X79523Y15400
X83023Y14400
X80023Y14400
X83445Y2892
X75381Y15100
X79888Y3085
X79046Y16600
X81250Y5359
X81023Y14900
X79931Y6892
X74583Y6802
X76214Y10325
X75557Y9754
X71623Y3432
X86252Y4075
X72352Y3635
X86445Y4700
X82587Y17080
X84305Y2900
X77933Y6600
X85454Y5727
X86323Y13400
X83137Y17409
X70123Y3854
X87791Y4000
X70123Y3400
X84852Y3629
X77923Y15000
X86154Y12500
X78523Y15100
X86323Y15300
X78533Y5450
X86746Y6712
X87081Y7112
X76452Y4237
X81523Y17571
X76741Y17682
X73357Y4334
X77695Y18400
X78523Y18400
X83723Y12035
X82617Y5650
X83723Y12500
X84634Y6625
X75852Y4450
X75987Y6387
X83877Y13488
X82623Y17571
X75452Y17700
X75075Y10955
X84023Y9000
X80987Y9005
X81023Y7650
X77023Y17000
X87323Y5200
X86946Y16900
X80923Y6878
X80923Y10771
X76423Y4769
X76223Y13078
X83627Y13000
X87352Y3417
X69445Y2789
X111033Y14000
X106468Y14843
X102533Y13743
X104933Y13700
X100361Y13200
X104486Y10292
X91933Y3854
X92446Y7620
X110353Y3148
X111115Y9144
X107832Y6858
X104533Y11000
X104033Y13300
X99558Y13716
X97018Y17145
X91557Y2540
X97033Y8200
X99304Y2813
X100828Y2813
X101590Y3013
X108853Y3148
X110033Y20000
X103033Y15900
X108833Y16500
X107033Y17400
X99593Y4350
X100943Y6600
X101008Y13366
X102533Y13021
X111033Y10000
X101533Y12000
X107813Y6350
X99693Y6600
X99526Y12000
X105233Y3078
X105040Y10292
X97340Y10107
X98533Y18481
X98504Y17000
X105604Y3400
X105672Y9379
X106654Y3378
X106438Y5300
X106055Y15829
X107253Y5420
X98533Y7500
X98700Y5426
X107904Y4807
X97391Y4258
X97333Y17700
X98033Y4900
X98033Y15900
X98487Y8878
X107133Y8300
X104904Y6900
X98744Y9618
X103576Y6017
X95233Y5362
X98065Y10293
X97704Y2850
X97433Y11750
X102026Y2807
X99858Y10671
X100927Y3267
X100043Y5450
X108033Y2900
X107333Y15500
X102033Y15400
X105533Y14400
X102533Y14400
X105954Y2892
X97890Y15100
X102398Y3085
X101555Y16600
X103759Y5359
X103533Y14900
X102440Y6892
X97092Y6802
X98724Y10325
X98067Y9754
X94133Y3432
X108761Y4075
X94861Y3635
X108954Y4700
X105097Y17080
X106815Y2900
X100443Y6600
X107963Y5727
X108833Y13400
X105647Y17409
X92633Y3854
X110300Y4000
X92633Y3400
X107361Y3629
X100433Y15000
X108663Y12500
X101033Y15100
X108833Y15300
X101043Y5450
X109256Y6712
X109591Y7112
X98961Y4237
X104033Y17571
X99251Y17682
X95867Y4334
X100204Y18400
X101033Y18400
X106233Y12035
X105126Y5650
X106233Y12500
X107143Y6625
X98361Y4450
X98496Y6387
X106387Y13488
X105133Y17571
X97962Y17700
X97585Y10955
X106533Y9000
X103497Y9005
X103533Y7650
X99533Y17000
X109833Y5200
X109455Y16900
X103433Y6878
X103433Y10771
X98933Y4769
X98733Y13078
X106136Y13000
X109861Y3417
X91954Y2789
X133540Y14000
X128975Y14843
X125040Y13743
X127440Y13700
X122868Y13200
X126993Y10292
X114440Y3854
X114953Y7620
X132860Y3148
X133622Y9144
X130339Y6858
X127040Y11000
X126540Y13300
X122065Y13716
X119525Y17145
X114064Y2540
X119540Y8200
X121811Y2813
X123335Y2813
X124097Y3013
X131360Y3148
X132540Y20000
X125540Y15900
X131340Y16500
X129540Y17400
X122100Y4350
X123450Y6600
X123515Y13366
X125040Y13021
X133540Y10000
X124040Y12000
X130320Y6350
X122200Y6600
X122033Y12000
X127740Y3078
X127547Y10292
X119847Y10107
X121040Y18481
X121011Y17000
X128111Y3400
X128179Y9379
X129161Y3378
X128945Y5300
X128562Y15829
X129759Y5420
X121040Y7500
X121207Y5426
X130411Y4807
X119898Y4258
X119840Y17700
X120540Y4900
X120540Y15900
X120994Y8878
X129640Y8300
X127411Y6900
X121251Y9618
X126083Y6017
X117740Y5362
X120572Y10293
X120211Y2850
X119940Y11750
X124533Y2807
X122365Y10671
X123434Y3267
X122550Y5450
X130540Y2900
X129840Y15500
X124540Y15400
X128040Y14400
X125040Y14400
X128461Y2892
X120397Y15100
X124904Y3085
X124062Y16600
X126266Y5359
X126040Y14900
X124947Y6892
X119599Y6802
X121231Y10325
X120574Y9754
X116640Y3432
X131268Y4075
X117368Y3635
X131461Y4700
X127604Y17080
X129322Y2900
X122950Y6600
X130470Y5727
X131340Y13400
X128154Y17409
X115140Y3854
X132807Y4000
X115140Y3400
X129868Y3629
X122940Y15000
X131170Y12500
X123540Y15100
X131340Y15300
X123550Y5450
X131763Y6712
X132098Y7112
X121468Y4237
X126540Y17571
X121758Y17682
X118374Y4334
X122711Y18400
X123540Y18400
X128740Y12035
X127633Y5650
X128740Y12500
X129650Y6625
X120868Y4450
X121003Y6387
X128894Y13488
X127640Y17571
X120469Y17700
X120092Y10955
X129040Y9000
X126004Y9005
X126040Y7650
X122040Y17000
X132340Y5200
X131962Y16900
X125940Y6878
X125940Y10771
X121440Y4769
X121240Y13078
X128643Y13000
X132368Y3417
X114461Y2789
X156049Y14000
X151485Y14843
X147549Y13743
X149949Y13700
X145378Y13200
X149503Y10292
X136949Y3854
X137462Y7620
X155369Y3148
X156131Y9144
X152848Y6858
X149549Y11000
X149049Y13300
X144574Y13716
X142034Y17145
X136573Y2540
X142049Y8200
X144320Y2813
X145844Y2813
X146606Y3013
X153869Y3148
X155049Y20000
X148049Y15900
X153849Y16500
X152049Y17400
X144609Y4350
X145959Y6600
X146024Y13366
X147549Y13021
X156049Y10000
X146549Y12000
X152829Y6350
X144709Y6600
X144542Y12000
X150249Y3078
X150057Y10292
X142357Y10107
X143549Y18481
X143521Y17000
X150621Y3400
X150689Y9379
X151671Y3378
X151454Y5300
X151071Y15829
X152269Y5420
X143549Y7500
X143716Y5426
X152921Y4807
X142407Y4258
X142350Y17700
X143049Y4900
X143049Y15900
X143504Y8878
X152149Y8300
X149921Y6900
X143761Y9618
X148592Y6017
X140249Y5362
X143081Y10293
X142721Y2850
X142449Y11750
X147042Y2807
X144875Y10671
X145943Y3267
X145059Y5450
X153049Y2900
X152349Y15500
X147049Y15400
X150549Y14400
X147549Y14400
X150971Y2892
X142907Y15100
X147414Y3085
X146571Y16600
X148775Y5359
X148549Y14900
X147457Y6892
X142109Y6802
X143740Y10325
X143083Y9754
X139149Y3432
X153778Y4075
X139878Y3635
X153971Y4700
X150113Y17080
X151831Y2900
X145459Y6600
X152979Y5727
X153849Y13400
X150663Y17409
X137649Y3854
X155317Y4000
X137649Y3400
X152378Y3629
X145449Y15000
X153679Y12500
X146049Y15100
X153849Y15300
X146059Y5450
X154272Y6712
X154607Y7112
X143978Y4237
X149049Y17571
X144267Y17682
X140883Y4334
X145221Y18400
X146049Y18400
X151249Y12035
X150143Y5650
X151249Y12500
X152160Y6625
X143378Y4450
X143513Y6387
X151403Y13488
X150149Y17571
X142978Y17700
X142601Y10955
X151549Y9000
X148513Y9005
X148549Y7650
X144549Y17000
X154849Y5200
X154471Y16900
X148449Y6878
X148449Y10771
X143949Y4769
X143749Y13078
X151152Y13000
X154878Y3417
X136971Y2789
X178556Y14000
X173992Y14843
X170056Y13743
X172456Y13700
X167885Y13200
X172010Y10292
X159456Y3854
X159969Y7620
X177876Y3148
X178638Y9144
X175355Y6858
X172056Y11000
X171556Y13300
X167081Y13716
X164541Y17145
X159080Y2540
X164556Y8200
X166827Y2813
X168351Y2813
X169113Y3013
X176376Y3148
X177556Y20000
X170556Y15900
X176356Y16500
X174556Y17400
X167116Y4350
X168466Y6600
X168531Y13366
X170056Y13021
X178556Y10000
X169056Y12000
X175336Y6350
X167216Y6600
X167049Y12000
X172756Y3078
X172564Y10292
X164864Y10107
X166056Y18481
X166028Y17000
X173128Y3400
X173196Y9379
X174178Y3378
X173961Y5300
X173578Y15829
X174776Y5420
X166056Y7500
X166223Y5426
X175428Y4807
X164914Y4258
X164857Y17700
X165556Y4900
X165556Y15900
X166011Y8878
X174656Y8300
X172428Y6900
X166268Y9618
X171099Y6017
X162756Y5362
X165588Y10293
X165228Y2850
X164956Y11750
X169549Y2807
X167382Y10671
X168450Y3267
X167566Y5450
X175556Y2900
X174856Y15500
X169556Y15400
X173056Y14400
X170056Y14400
X173478Y2892
X165414Y15100
X169921Y3085
X169078Y16600
X171282Y5359
X171056Y14900
X169964Y6892
X164616Y6802
X166247Y10325
X165590Y9754
X161656Y3432
X176285Y4075
X162385Y3635
X176478Y4700
X172620Y17080
X174338Y2900
X167966Y6600
X175486Y5727
X176356Y13400
X173170Y17409
X160156Y3854
X177824Y4000
X160156Y3400
X174885Y3629
X167956Y15000
X176186Y12500
X168556Y15100
X176356Y15300
X168566Y5450
X176779Y6712
X177114Y7112
X166485Y4237
X171556Y17571
X166774Y17682
X163390Y4334
X167728Y18400
X168556Y18400
X173756Y12035
X172650Y5650
X173756Y12500
X174667Y6625
X165885Y4450
X166020Y6387
X173910Y13488
X172656Y17571
X165485Y17700
X165108Y10955
X174056Y9000
X171020Y9005
X171056Y7650
X167056Y17000
X177356Y5200
X176978Y16900
X170956Y6878
X170956Y10771
X166456Y4769
X166256Y13078
X173659Y13000
X177385Y3417
X159478Y2789
X201063Y14000
X196499Y14843
X192563Y13743
X194963Y13700
X190392Y13200
X194517Y10292
X181963Y3854
X182476Y7620
X200383Y3148
X201145Y9144
X197862Y6858
X194563Y11000
X194063Y13300
X189588Y13716
X187048Y17145
X181587Y2540
X187063Y8200
X189334Y2813
X190858Y2813
X191620Y3013
X198883Y3148
X200063Y20000
X193063Y15900
X198863Y16500
X197063Y17400
X189623Y4350
X190973Y6600
X191038Y13366
X192563Y13021
X201063Y10000
X191563Y12000
X197843Y6350
X189723Y6600
X189556Y12000
X195263Y3078
X195071Y10292
X187371Y10107
X188563Y18481
X188535Y17000
X195635Y3400
X195703Y9379
X196685Y3378
X196468Y5300
X196085Y15829
X197283Y5420
X188563Y7500
X188730Y5426
X197935Y4807
X187421Y4258
X187364Y17700
X188063Y4900
X188063Y15900
X188518Y8878
X197163Y8300
X194935Y6900
X188775Y9618
X193606Y6017
X185263Y5362
X188095Y10293
X187735Y2850
X187463Y11750
X192056Y2807
X189889Y10671
X190957Y3267
X190073Y5450
X198063Y2900
X197363Y15500
X192063Y15400
X195563Y14400
X192563Y14400
X195985Y2892
X187921Y15100
X192428Y3085
X191585Y16600
X193789Y5359
X193563Y14900
X192471Y6892
X187123Y6802
X188754Y10325
X188097Y9754
X184163Y3432
X198792Y4075
X184892Y3635
X198985Y4700
X195127Y17080
X196845Y2900
X190473Y6600
X197993Y5727
X198863Y13400
X195677Y17409
X182663Y3854
X200331Y4000
X182663Y3400
X197392Y3629
X190463Y15000
X198693Y12500
X191063Y15100
X198863Y15300
X191073Y5450
X199286Y6712
X199621Y7112
X188992Y4237
X194063Y17571
X189281Y17682
X185897Y4334
X190235Y18400
X191063Y18400
X196263Y12035
X195157Y5650
X196263Y12500
X197174Y6625
X188392Y4450
X188527Y6387
X196417Y13488
X195163Y17571
X187992Y17700
X187615Y10955
X196563Y9000
X193527Y9005
X193563Y7650
X189563Y17000
X199863Y5200
X199485Y16900
X193463Y6878
X193463Y10771
X188963Y4769
X188763Y13078
X196166Y13000
X199892Y3417
X181985Y2789
X223573Y14000
X219008Y14843
X215073Y13743
X217473Y13700
X212901Y13200
X217026Y10292
X204473Y3854
X204986Y7620
X222893Y3148
X223655Y9144
X220372Y6858
X217073Y11000
X216573Y13300
X212098Y13716
X209558Y17145
X204097Y2540
X209573Y8200
X211844Y2813
X213368Y2813
X214130Y3013
X221393Y3148
X222573Y20000
X215573Y15900
X221373Y16500
X219573Y17400
X212133Y4350
X213483Y6600
X213548Y13366
X215073Y13021
X223573Y10000
X214073Y12000
X220353Y6350
X212233Y6600
X212065Y12000
X217773Y3078
X217580Y10292
X209880Y10107
X211073Y18481
X211044Y17000
X218144Y3400
X218212Y9379
X219194Y3378
X218978Y5300
X218595Y15829
X219792Y5420
X211073Y7500
X211240Y5426
X220444Y4807
X209931Y4258
X209873Y17700
X210573Y4900
X210573Y15900
X211027Y8878
X219673Y8300
X217444Y6900
X211284Y9618
X216115Y6017
X207773Y5362
X210604Y10293
X210244Y2850
X209973Y11750
X214566Y2807
X212398Y10671
X213466Y3267
X212583Y5450
X220573Y2900
X219873Y15500
X214573Y15400
X218073Y14400
X215073Y14400
X218494Y2892
X210430Y15100
X214937Y3085
X214095Y16600
X216299Y5359
X216073Y14900
X214980Y6892
X209632Y6802
X211264Y10325
X210607Y9754
X206673Y3432
X221301Y4075
X207401Y3635
X221494Y4700
X217637Y17080
X219354Y2900
X212983Y6600
X220503Y5727
X221373Y13400
X218187Y17409
X205173Y3854
X222840Y4000
X205173Y3400
X219901Y3629
X212973Y15000
X221203Y12500
X213573Y15100
X221373Y15300
X213583Y5450
X221796Y6712
X222131Y7112
X211501Y4237
X216573Y17571
X211791Y17682
X208407Y4334
X212744Y18400
X213573Y18400
X218773Y12035
X217666Y5650
X218773Y12500
X219683Y6625
X210901Y4450
X211036Y6387
X218927Y13488
X217673Y17571
X210502Y17700
X210125Y10955
X219073Y9000
X216037Y9005
X216073Y7650
X212073Y17000
X222373Y5200
X221995Y16900
X215973Y6878
X215973Y10771
X211473Y4769
X211273Y13078
X218676Y13000
X222401Y3417
X204494Y2789
X999Y55850
X5564Y55007
X9499Y56107
X7099Y56150
X11670Y56650
X7545Y59558
X20099Y65996
X19586Y62230
X1679Y66702
X917Y60706
X4200Y62992
X7499Y58850
X7999Y56550
X12474Y56134
X15014Y52705
X20475Y67310
X14999Y61650
X12728Y67037
X11204Y67037
X10442Y66837
X3179Y66702
X1999Y49850
X8999Y53950
X3199Y53350
X4999Y52450
X12439Y65500
X11089Y63250
X11024Y56484
X9499Y56829
X999Y59850
X10499Y57850
X4219Y63500
X12339Y63250
X12506Y57850
X6799Y66772
X6991Y59558
X14691Y59743
X13499Y51369
X13528Y52850
X6428Y66450
X6359Y60471
X5378Y66472
X5594Y64550
X5977Y54021
X4779Y64430
X13499Y62350
X13332Y64424
X4128Y65043
X14641Y65592
X14699Y52150
X13999Y64950
X13999Y53950
X13544Y60972
X4899Y61550
X7128Y62950
X13287Y60232
X8456Y63833
X16799Y64488
X13967Y59557
X14328Y67000
X14599Y58100
X10006Y67043
X12174Y59179
X11105Y66583
X11989Y64400
X3999Y66950
X4699Y54350
X9999Y54450
X6499Y55450
X9499Y55450
X6078Y66958
X14141Y54750
X9634Y66765
X10477Y53250
X8273Y64491
X8499Y54950
X9591Y62958
X14939Y63048
X13308Y59525
X13965Y60096
X17899Y66418
X3270Y65775
X17170Y66215
X3078Y65150
X6935Y52770
X5217Y66950
X11589Y63250
X4069Y64123
X3199Y56450
X6385Y52441
X19399Y65996
X1731Y65850
X19399Y66450
X4670Y66221
X11599Y54850
X3369Y57350
X10999Y54750
X3199Y54550
X10989Y64400
X2776Y63138
X2441Y62738
X13070Y65613
X7999Y52279
X12781Y52168
X16165Y65516
X11828Y51450
X10999Y51450
X5799Y57815
X6905Y64200
X5799Y57350
X4889Y63225
X13670Y65400
X13536Y63463
X5645Y56362
X6899Y52279
X14070Y52150
X14447Y58895
X5499Y60850
X8535Y60845
X8499Y62200
X12499Y52850
X2199Y64650
X2577Y52950
X8599Y62972
X8599Y59079
X13099Y65081
X13299Y56772
X5896Y56850
X2170Y66433
X20078Y67061
X23508Y55850
X28073Y55007
X32008Y56107
X29608Y56150
X34180Y56650
X30055Y59558
X42608Y65996
X42095Y62230
X24188Y66702
X23426Y60706
X26709Y62992
X30008Y58850
X30508Y56550
X34983Y56134
X37523Y52705
X42984Y67310
X37508Y61650
X35237Y67037
X33713Y67037
X32951Y66837
X25688Y66702
X24508Y49850
X31508Y53950
X25708Y53350
X27508Y52450
X34948Y65500
X33598Y63250
X33533Y56484
X32008Y56829
X23508Y59850
X33008Y57850
X26728Y63500
X34848Y63250
X35016Y57850
X29308Y66772
X29501Y59558
X37201Y59743
X36008Y51369
X36037Y52850
X28937Y66450
X28869Y60471
X27887Y66472
X28103Y64550
X28486Y54021
X27289Y64430
X36008Y62350
X35841Y64424
X26637Y65043
X37150Y65592
X37208Y52150
X36508Y64950
X36508Y53950
X36054Y60972
X27408Y61550
X29637Y62950
X35797Y60232
X30966Y63833
X39308Y64488
X36477Y59557
X36837Y67000
X37108Y58100
X32515Y67043
X34683Y59179
X33615Y66583
X34498Y64400
X26508Y66950
X27208Y54350
X32508Y54450
X29008Y55450
X32008Y55450
X28587Y66958
X36651Y54750
X32144Y66765
X32986Y53250
X30782Y64491
X31008Y54950
X32101Y62958
X37449Y63048
X35817Y59525
X36474Y60096
X40408Y66418
X25780Y65775
X39680Y66215
X25587Y65150
X29444Y52770
X27727Y66950
X34098Y63250
X26578Y64123
X25708Y56450
X28894Y52441
X41908Y65996
X24241Y65850
X41908Y66450
X27180Y66221
X34108Y54850
X25878Y57350
X33508Y54750
X25708Y54550
X33498Y64400
X25285Y63138
X24950Y62738
X35580Y65613
X30508Y52279
X35291Y52168
X38674Y65516
X34337Y51450
X33508Y51450
X28308Y57815
X29415Y64200
X28308Y57350
X27398Y63225
X36180Y65400
X36045Y63463
X28154Y56362
X29408Y52279
X36579Y52150
X36956Y58895
X28008Y60850
X31044Y60845
X31008Y62200
X35008Y52850
X24708Y64650
X25086Y52950
X31108Y62972
X31108Y59079
X35608Y65081
X35808Y56772
X28405Y56850
X24680Y66433
X42587Y67061
X46015Y55850
X50580Y55007
X54515Y56107
X52115Y56150
X56687Y56650
X52562Y59558
X65115Y65996
X64602Y62230
X46695Y66702
X45933Y60706
X49216Y62992
X52515Y58850
X53015Y56550
X57490Y56134
X60030Y52705
X65491Y67310
X60015Y61650
X57744Y67037
X56220Y67037
X55458Y66837
X48195Y66702
X47015Y49850
X54015Y53950
X48215Y53350
X50015Y52450
X57455Y65500
X56105Y63250
X56040Y56484
X54515Y56829
X46015Y59850
X55515Y57850
X49235Y63500
X57355Y63250
X57522Y57850
X51815Y66772
X52008Y59558
X59708Y59743
X58515Y51369
X58544Y52850
X51444Y66450
X51376Y60471
X50394Y66472
X50610Y64550
X50993Y54021
X49796Y64430
X58515Y62350
X58348Y64424
X49144Y65043
X59657Y65592
X59715Y52150
X59015Y64950
X59015Y53950
X58561Y60972
X49915Y61550
X52144Y62950
X58304Y60232
X53473Y63833
X61815Y64488
X58984Y59557
X59344Y67000
X59615Y58100
X55022Y67043
X57190Y59179
X56122Y66583
X57005Y64400
X49015Y66950
X49715Y54350
X55015Y54450
X51515Y55450
X54515Y55450
X51094Y66958
X59158Y54750
X54651Y66765
X55493Y53250
X53289Y64491
X53515Y54950
X54608Y62958
X59956Y63048
X58324Y59525
X58981Y60096
X62915Y66418
X48287Y65775
X62187Y66215
X48094Y65150
X51951Y52770
X50234Y66950
X56605Y63250
X49085Y64123
X48215Y56450
X51401Y52441
X64415Y65996
X46748Y65850
X64415Y66450
X49687Y66221
X56615Y54850
X48385Y57350
X56015Y54750
X48215Y54550
X56005Y64400
X47792Y63138
X47457Y62738
X58087Y65613
X53015Y52279
X57797Y52168
X61181Y65516
X56844Y51450
X56015Y51450
X50815Y57815
X51922Y64200
X50815Y57350
X49905Y63225
X58687Y65400
X58552Y63463
X50661Y56362
X51915Y52279
X59086Y52150
X59463Y58895
X50515Y60850
X53551Y60845
X53515Y62200
X57515Y52850
X47215Y64650
X47593Y52950
X53615Y62972
X53615Y59079
X58115Y65081
X58315Y56772
X50912Y56850
X47187Y66433
X65094Y67061
X68525Y55850
X73089Y55007
X77025Y56107
X74625Y56150
X79196Y56650
X75071Y59558
X87625Y65996
X87112Y62230
X69205Y66702
X68443Y60706
X71726Y62992
X75025Y58850
X75525Y56550
X80000Y56134
X82540Y52705
X88001Y67310
X82525Y61650
X80254Y67037
X78730Y67037
X77968Y66837
X70705Y66702
X69525Y49850
X76525Y53950
X70725Y53350
X72525Y52450
X79965Y65500
X78615Y63250
X78550Y56484
X77025Y56829
X68525Y59850
X78025Y57850
X71745Y63500
X79865Y63250
X80032Y57850
X74325Y66772
X74517Y59558
X82217Y59743
X81025Y51369
X81053Y52850
X73953Y66450
X73885Y60471
X72903Y66472
X73120Y64550
X73503Y54021
X72305Y64430
X81025Y62350
X80858Y64424
X71653Y65043
X82167Y65592
X82224Y52150
X81525Y64950
X81525Y53950
X81070Y60972
X72425Y61550
X74653Y62950
X80813Y60232
X75982Y63833
X84325Y64488
X81493Y59557
X81853Y67000
X82125Y58100
X77532Y67043
X79699Y59179
X78631Y66583
X79515Y64400
X71525Y66950
X72225Y54350
X77525Y54450
X74025Y55450
X77025Y55450
X73603Y66958
X81667Y54750
X77160Y66765
X78003Y53250
X75799Y64491
X76025Y54950
X77117Y62958
X82465Y63048
X80834Y59525
X81491Y60096
X85425Y66418
X70796Y65775
X84696Y66215
X70603Y65150
X74461Y52770
X72743Y66950
X79115Y63250
X71595Y64123
X70725Y56450
X73911Y52441
X86925Y65996
X69257Y65850
X86925Y66450
X72196Y66221
X79125Y54850
X70895Y57350
X78525Y54750
X70725Y54550
X78515Y64400
X70302Y63138
X69967Y62738
X80596Y65613
X75525Y52279
X80307Y52168
X83691Y65516
X79353Y51450
X78525Y51450
X73325Y57815
X74431Y64200
X73325Y57350
X72414Y63225
X81196Y65400
X81061Y63463
X73171Y56362
X74425Y52279
X81596Y52150
X81973Y58895
X73025Y60850
X76061Y60845
X76025Y62200
X80025Y52850
X69725Y64650
X70103Y52950
X76125Y62972
X76125Y59079
X80625Y65081
X80825Y56772
X73422Y56850
X69696Y66433
X87603Y67061
X91032Y55850
X95596Y55007
X99532Y56107
X97132Y56150
X101703Y56650
X97578Y59558
X110132Y65996
X109619Y62230
X91712Y66702
X90950Y60706
X94233Y62992
X97532Y58850
X98032Y56550
X102507Y56134
X105047Y52705
X110508Y67310
X105032Y61650
X102761Y67037
X101237Y67037
X100475Y66837
X93212Y66702
X92032Y49850
X99032Y53950
X93232Y53350
X95032Y52450
X102472Y65500
X101122Y63250
X101057Y56484
X99532Y56829
X91032Y59850
X100532Y57850
X94252Y63500
X102372Y63250
X102539Y57850
X96832Y66772
X97024Y59558
X104724Y59743
X103532Y51369
X103560Y52850
X96460Y66450
X96392Y60471
X95410Y66472
X95627Y64550
X96010Y54021
X94812Y64430
X103532Y62350
X103365Y64424
X94160Y65043
X104674Y65592
X104731Y52150
X104032Y64950
X104032Y53950
X103577Y60972
X94932Y61550
X97160Y62950
X103320Y60232
X98489Y63833
X106832Y64488
X104000Y59557
X104360Y67000
X104632Y58100
X100039Y67043
X102206Y59179
X101138Y66583
X102022Y64400
X94032Y66950
X94732Y54350
X100032Y54450
X96532Y55450
X99532Y55450
X96110Y66958
X104174Y54750
X99667Y66765
X100510Y53250
X98306Y64491
X98532Y54950
X99624Y62958
X104972Y63048
X103341Y59525
X103998Y60096
X107932Y66418
X93303Y65775
X107203Y66215
X93110Y65150
X96968Y52770
X95250Y66950
X101622Y63250
X94102Y64123
X93232Y56450
X96418Y52441
X109432Y65996
X91764Y65850
X109432Y66450
X94703Y66221
X101632Y54850
X93402Y57350
X101032Y54750
X93232Y54550
X101022Y64400
X92809Y63138
X92474Y62738
X103103Y65613
X98032Y52279
X102814Y52168
X106198Y65516
X101860Y51450
X101032Y51450
X95832Y57815
X96938Y64200
X95832Y57350
X94921Y63225
X103703Y65400
X103568Y63463
X95678Y56362
X96932Y52279
X104103Y52150
X104480Y58895
X95532Y60850
X98568Y60845
X98532Y62200
X102532Y52850
X92232Y64650
X92610Y52950
X98632Y62972
X98632Y59079
X103132Y65081
X103332Y56772
X95929Y56850
X92203Y66433
X110110Y67061
X113541Y55850
X118106Y55007
X122041Y56107
X119641Y56150
X124213Y56650
X120088Y59558
X132641Y65996
X132128Y62230
X114221Y66702
X113459Y60706
X116742Y62992
X120041Y58850
X120541Y56550
X125016Y56134
X127556Y52705
X133017Y67310
X127541Y61650
X125270Y67037
X123746Y67037
X122984Y66837
X115721Y66702
X114541Y49850
X121541Y53950
X115741Y53350
X117541Y52450
X124981Y65500
X123631Y63250
X123566Y56484
X122041Y56829
X113541Y59850
X123041Y57850
X116761Y63500
X124881Y63250
X125048Y57850
X119341Y66772
X119534Y59558
X127234Y59743
X126041Y51369
X126070Y52850
X118970Y66450
X118902Y60471
X117920Y66472
X118136Y64550
X118519Y54021
X117322Y64430
X126041Y62350
X125874Y64424
X116670Y65043
X127183Y65592
X127241Y52150
X126541Y64950
X126541Y53950
X126087Y60972
X117441Y61550
X119670Y62950
X125830Y60232
X120998Y63833
X129341Y64488
X126509Y59557
X126870Y67000
X127141Y58100
X122548Y67043
X124716Y59179
X123647Y66583
X124531Y64400
X116541Y66950
X117241Y54350
X122541Y54450
X119041Y55450
X122041Y55450
X118620Y66958
X126684Y54750
X122177Y66765
X123019Y53250
X120815Y64491
X121041Y54950
X122134Y62958
X127482Y63048
X125850Y59525
X126507Y60096
X130441Y66418
X115813Y65775
X129713Y66215
X115620Y65150
X119477Y52770
X117759Y66950
X124131Y63250
X116611Y64123
X115741Y56450
X118927Y52441
X131941Y65996
X114274Y65850
X131941Y66450
X117213Y66221
X124141Y54850
X115911Y57350
X123541Y54750
X115741Y54550
X123531Y64400
X115318Y63138
X114983Y62738
X125613Y65613
X120541Y52279
X125323Y52168
X128707Y65516
X124370Y51450
X123541Y51450
X118341Y57815
X119448Y64200
X118341Y57350
X117431Y63225
X126213Y65400
X126078Y63463
X118187Y56362
X119441Y52279
X126612Y52150
X126989Y58895
X118041Y60850
X121077Y60845
X121041Y62200
X125041Y52850
X114741Y64650
X115119Y52950
X121141Y62972
X121141Y59079
X125641Y65081
X125841Y56772
X118438Y56850
X114713Y66433
X132620Y67061
X136048Y55850
X140613Y55007
X144548Y56107
X142148Y56150
X146720Y56650
X142595Y59558
X155148Y65996
X154635Y62230
X136728Y66702
X135966Y60706
X139249Y62992
X142548Y58850
X143048Y56550
X147523Y56134
X150063Y52705
X155524Y67310
X150048Y61650
X147777Y67037
X146253Y67037
X145491Y66837
X138228Y66702
X137048Y49850
X144048Y53950
X138248Y53350
X140048Y52450
X147488Y65500
X146138Y63250
X146073Y56484
X144548Y56829
X136048Y59850
X145548Y57850
X139268Y63500
X147388Y63250
X147555Y57850
X141848Y66772
X142041Y59558
X149741Y59743
X148548Y51369
X148577Y52850
X141477Y66450
X141409Y60471
X140427Y66472
X140643Y64550
X141026Y54021
X139829Y64430
X148548Y62350
X148381Y64424
X139177Y65043
X149690Y65592
X149748Y52150
X149048Y64950
X149048Y53950
X148594Y60972
X139948Y61550
X142177Y62950
X148337Y60232
X143505Y63833
X151848Y64488
X149016Y59557
X149377Y67000
X149648Y58100
X145055Y67043
X147223Y59179
X146154Y66583
X147038Y64400
X139048Y66950
X139748Y54350
X145048Y54450
X141548Y55450
X144548Y55450
X141127Y66958
X149191Y54750
X144683Y66765
X145526Y53250
X143322Y64491
X143548Y54950
X144641Y62958
X149989Y63048
X148357Y59525
X149014Y60096
X152948Y66418
X138320Y65775
X152220Y66215
X138127Y65150
X141984Y52770
X140266Y66950
X146638Y63250
X139118Y64123
X138248Y56450
X141434Y52441
X154448Y65996
X136781Y65850
X154448Y66450
X139720Y66221
X146648Y54850
X138418Y57350
X146048Y54750
X138248Y54550
X146038Y64400
X137825Y63138
X137490Y62738
X148120Y65613
X143048Y52279
X147830Y52168
X151214Y65516
X146877Y51450
X146048Y51450
X140848Y57815
X141955Y64200
X140848Y57350
X139938Y63225
X148720Y65400
X148585Y63463
X140694Y56362
X141948Y52279
X149119Y52150
X149496Y58895
X140548Y60850
X143584Y60845
X143548Y62200
X147548Y52850
X137248Y64650
X137626Y52950
X143648Y62972
X143648Y59079
X148148Y65081
X148348Y56772
X140945Y56850
X137220Y66433
X155127Y67061
X158555Y55850
X163120Y55007
X167055Y56107
X164655Y56150
X169227Y56650
X165101Y59558
X177655Y65996
X177142Y62230
X159235Y66702
X158473Y60706
X161756Y62992
X165055Y58850
X165555Y56550
X170030Y56134
X172570Y52705
X178031Y67310
X172555Y61650
X170284Y67037
X168760Y67037
X167998Y66837
X160735Y66702
X159555Y49850
X166555Y53950
X160755Y53350
X162555Y52450
X169995Y65500
X168645Y63250
X168580Y56484
X167055Y56829
X158555Y59850
X168055Y57850
X161775Y63500
X169895Y63250
X170062Y57850
X164355Y66772
X164547Y59558
X172248Y59743
X171055Y51369
X171084Y52850
X163984Y66450
X163916Y60471
X162934Y66472
X163150Y64550
X163533Y54021
X162335Y64430
X171055Y62350
X170888Y64424
X161684Y65043
X172197Y65592
X172255Y52150
X171555Y64950
X171555Y53950
X171101Y60972
X162455Y61550
X164684Y62950
X170844Y60232
X166012Y63833
X174355Y64488
X171523Y59557
X171884Y67000
X172155Y58100
X167562Y67043
X169730Y59179
X168661Y66583
X169545Y64400
X161555Y66950
X162255Y54350
X167555Y54450
X164055Y55450
X167055Y55450
X163634Y66958
X171698Y54750
X167190Y66765
X168033Y53250
X165829Y64491
X166055Y54950
X167147Y62958
X172496Y63048
X170864Y59525
X171521Y60096
X175455Y66418
X160827Y65775
X174727Y66215
X160634Y65150
X164491Y52770
X162773Y66950
X169145Y63250
X161625Y64123
X160755Y56450
X163941Y52441
X176955Y65996
X159288Y65850
X176955Y66450
X162227Y66221
X169155Y54850
X160925Y57350
X168555Y54750
X160755Y54550
X168545Y64400
X160332Y63138
X159997Y62738
X170627Y65613
X165555Y52279
X170337Y52168
X173721Y65516
X169384Y51450
X168555Y51450
X163355Y57815
X164462Y64200
X163355Y57350
X162445Y63225
X171227Y65400
X171092Y63463
X163201Y56362
X164455Y52279
X171626Y52150
X172003Y58895
X163055Y60850
X166091Y60845
X166055Y62200
X170055Y52850
X159755Y64650
X160133Y52950
X166155Y62972
X166155Y59079
X170655Y65081
X170855Y56772
X163452Y56850
X159727Y66433
X177634Y67061
X181065Y55850
X185629Y55007
X189565Y56107
X187165Y56150
X191736Y56650
X187611Y59558
X200165Y65996
X199652Y62230
X181745Y66702
X180983Y60706
X184266Y62992
X187565Y58850
X188065Y56550
X192540Y56134
X195080Y52705
X200541Y67310
X195065Y61650
X192794Y67037
X191270Y67037
X190508Y66837
X183245Y66702
X182065Y49850
X189065Y53950
X183265Y53350
X185065Y52450
X192505Y65500
X191155Y63250
X191090Y56484
X189565Y56829
X181065Y59850
X190565Y57850
X184285Y63500
X192405Y63250
X192572Y57850
X186865Y66772
X187057Y59558
X194757Y59743
X193565Y51369
X193593Y52850
X186493Y66450
X186425Y60471
X185443Y66472
X185659Y64550
X186042Y54021
X184845Y64430
X193565Y62350
X193398Y64424
X184193Y65043
X194707Y65592
X194764Y52150
X194065Y64950
X194065Y53950
X193610Y60972
X184965Y61550
X187193Y62950
X193353Y60232
X188522Y63833
X196865Y64488
X194033Y59557
X194393Y67000
X194665Y58100
X190072Y67043
X192239Y59179
X191171Y66583
X192055Y64400
X184065Y66950
X184765Y54350
X190065Y54450
X186565Y55450
X189565Y55450
X186143Y66958
X194207Y54750
X189700Y66765
X190542Y53250
X188338Y64491
X188565Y54950
X189657Y62958
X195005Y63048
X193374Y59525
X194031Y60096
X197965Y66418
X183336Y65775
X197236Y66215
X183143Y65150
X187001Y52770
X185283Y66950
X191655Y63250
X184134Y64123
X183265Y56450
X186451Y52441
X199465Y65996
X181797Y65850
X199465Y66450
X184736Y66221
X191665Y54850
X183434Y57350
X191065Y54750
X183265Y54550
X191055Y64400
X182842Y63138
X182507Y62738
X193136Y65613
X188065Y52279
X192847Y52168
X196231Y65516
X191893Y51450
X191065Y51450
X185865Y57815
X186971Y64200
X185865Y57350
X184954Y63225
X193736Y65400
X193601Y63463
X185711Y56362
X186965Y52279
X194136Y52150
X194513Y58895
X185565Y60850
X188601Y60845
X188565Y62200
X192565Y52850
X182265Y64650
X182642Y52950
X188665Y62972
X188665Y59079
X193165Y65081
X193365Y56772
X185961Y56850
X182236Y66433
X200143Y67061
X203572Y55850
X208136Y55007
X212072Y56107
X209672Y56150
X214243Y56650
X210118Y59558
X222672Y65996
X222159Y62230
X204252Y66702
X203490Y60706
X206773Y62992
X210072Y58850
X210572Y56550
X215047Y56134
X217587Y52705
X223048Y67310
X217572Y61650
X215301Y67037
X213777Y67037
X213015Y66837
X205752Y66702
X204572Y49850
X211572Y53950
X205772Y53350
X207572Y52450
X215012Y65500
X213662Y63250
X213597Y56484
X212072Y56829
X203572Y59850
X213072Y57850
X206792Y63500
X214912Y63250
X215079Y57850
X209372Y66772
X209564Y59558
X217264Y59743
X216072Y51369
X216100Y52850
X209000Y66450
X208932Y60471
X207950Y66472
X208166Y64550
X208549Y54021
X207352Y64430
X216072Y62350
X215905Y64424
X206700Y65043
X217214Y65592
X217271Y52150
X216572Y64950
X216572Y53950
X216117Y60972
X207472Y61550
X209700Y62950
X215860Y60232
X211029Y63833
X219372Y64488
X216540Y59557
X216900Y67000
X217172Y58100
X212579Y67043
X214746Y59179
X213678Y66583
X214562Y64400
X206572Y66950
X207272Y54350
X212572Y54450
X209072Y55450
X212072Y55450
X208650Y66958
X216714Y54750
X212207Y66765
X213049Y53250
X210845Y64491
X211072Y54950
X212164Y62958
X217512Y63048
X215880Y59525
X216538Y60096
X220472Y66418
X205843Y65775
X219743Y66215
X205650Y65150
X209508Y52770
X207790Y66950
X214162Y63250
X206641Y64123
X205772Y56450
X208958Y52441
X221972Y65996
X204304Y65850
X221972Y66450
X207243Y66221
X214172Y54850
X205941Y57350
X213572Y54750
X205772Y54550
X213562Y64400
X205349Y63138
X205014Y62738
X215643Y65613
X210572Y52279
X215354Y52168
X218738Y65516
X214400Y51450
X213572Y51450
X208372Y57815
X209478Y64200
X208372Y57350
X207461Y63225
X216243Y65400
X216108Y63463
X208218Y56362
X209472Y52279
X216643Y52150
X217020Y58895
X208072Y60850
X211108Y60845
X211072Y62200
X215072Y52850
X204772Y64650
X205149Y52950
X211172Y62972
X211172Y59079
X215672Y65081
X215872Y56772
X208468Y56850
X204743Y66433
X222650Y67061
X12900Y21000
X17100Y21000
X15000Y19700
X35407Y21000
X39607Y21000
X37507Y19700
X57916Y21000
X62116Y21000
X60016Y19700
X80423Y21000
X84623Y21000
X82523Y19700
X102933Y21000
X107133Y21000
X105033Y19700
X125440Y21000
X129640Y21000
X127540Y19700
X147949Y21000
X152149Y21000
X150049Y19700
X170456Y21000
X174656Y21000
X172556Y19700
X192963Y21000
X197163Y21000
X195063Y19700
X215473Y21000
X219673Y21000
X217573Y19700
X9099Y48850
X4899Y48850
X6999Y50150
X31608Y48850
X27408Y48850
X29508Y50150
X54115Y48850
X49915Y48850
X52015Y50150
X76625Y48850
X72425Y48850
X74525Y50150
X99132Y48850
X94932Y48850
X97032Y50150
X121641Y48850
X117441Y48850
X119541Y50150
X144148Y48850
X139948Y48850
X142048Y50150
X166655Y48850
X162455Y48850
X164555Y50150
X189165Y48850
X184965Y48850
X187065Y50150
X211672Y48850
X207472Y48850
X209572Y50150
M30